# xmcd
#
# Track frame offsets: 
#        150
#        18317
#        35870
#        67755
#        101282
#        122822
#        144165
#        160095
#        176375
#        198292
#        214567
#        233047
#        248517
#        261560
#        276185
#        293580
#
# Disc length: 4147 seconds
#
# Revision: 3
# Processed by: cddbd v1.5.2PL0 Copyright (c) Steve Scherf et al.
# Submitted via: ExactAudioCopy v0.90b4
#
DISCID=d6103110
DTITLE=Shania Twain - Come on Over (Asian Bonus CD)
DYEAR=1997
DGENRE=Country
TTITLE0=That Don't Impress Me Much
TTITLE1=God Bless the Child
TTITLE2=If You're Not in it for Love (I'm Outta Here)
TTITLE3=A Man Like You
TTITLE4=From This Moment On
TTITLE5=Don't Be Stupid (You Know I Love You)
TTITLE6=You're Still the One
TTITLE7=When
TTITLE8=From This Moment On (different)
TTITLE9=Black Eyes, Blue Tears
TTITLE10=I Won't Leave You Lonely
TTITLE11=I'm Holdin' On to Love (To Save My Life)
TTITLE12=Come on Over
TTITLE13=You've Got a Way
TTITLE14=Whatever You Do! Don't!
TTITLE15=Man! I Feel Like a Woman!
EXTD=
EXTT0=
EXTT1=
EXTT2=
EXTT3=
EXTT4=
EXTT5=
EXTT6=
EXTT7=
EXTT8=
EXTT9=
EXTT10=
EXTT11=
EXTT12=
EXTT13=
EXTT14=
EXTT15=
PLAYORDER=
